<?xml version="1.0" encoding="UTF-8"?>
<svg width="63px" height="64px" viewBox="0 0 63 64" version="1.1" xmlns="http://www.w3.org/2000/svg" xmlns:xlink="http://www.w3.org/1999/xlink">
    <!-- Generator: Sketch 48.2 (47327) - http://www.bohemiancoding.com/sketch -->
    <title>postcyclist</title>
    <desc>Created with Sketch.</desc>
    <defs>
        <polygon id="path-1" points="0.0185 0.0804902998 23.2735 0.0804902998 23.2735 23.4567901 0.0185 23.4567901"></polygon>
        <polygon id="path-3" points="0.326833333 0.0804902998 23.5788333 0.0804902998 23.5788333 23.4567901 0.326833333 23.4567901"></polygon>
        <polygon id="path-5" points="0 0.322430335 20.4604333 0.322430335 20.4604333 9.36669841 0 9.36669841"></polygon>
        <polygon id="path-7" points="0 63.2998236 62.607 63.2998236 62.607 0 0 0"></polygon>
    </defs>
    <g id="widgetAddress_gestart_S" stroke="none" stroke-width="1" fill="none" fill-rule="evenodd" transform="translate(-327.000000, -40.000000)">
        <g id="visual" transform="translate(327.000000, 0.000000)">
            <g id="postcyclist" transform="translate(0.000000, 40.000000)">
                <g id="Page-1" transform="translate(0.000000, 0.666667)">
                    <path d="M39.1541333,10.0185291 C39.2028,10.3666949 39.3764667,10.6629206 39.6174667,10.8814039 L41.0974667,11.1555132 C41.7028,10.9172593 42.0908,10.2882822 41.9951333,9.61306173 C41.8838,8.82424339 41.1578,8.27568959 40.3728,8.38761199 C39.5884667,8.49953439 39.0424667,9.22971076 39.1541333,10.0185291" id="Fill-1" fill="#FFB70A"></path>
                    <polygon id="Fill-3" fill="#6DCBF7" points="52.4197667 7.81355732 42.3414333 12.0555503 39.6071 5.4913351 49.6861 1.24934215"></polygon>
                    <polygon id="Fill-5" fill="#FFFFFF" points="46.5418333 7.92048677 43.0478333 9.39122751 42.3768333 7.78008113 45.8708333 6.30967549"></polygon>
                    <polygon id="Fill-7" fill="#F46808" points="49.3133 1.91229806 49.9919667 3.54220988 48.7866333 4.04954674 48.1079667 2.41963492"></polygon>
                    <polygon id="Fill-9" fill="#0071B3" points="46.3868667 4.04763668 45.2718667 3.81038801 45.3188667 3.5878836 46.2815333 3.79296296 46.8582 2.89557319 47.9742 3.13248677 47.9272 3.35465608 46.9635333 3.14991182"></polygon>
                    <polygon id="Fill-11" fill="#0071B3" points="46.7309667 4.87395238 45.6163 4.6367037 45.6633 4.41453439 46.6256333 4.61927866 47.2023 3.72188889 48.3186333 3.95880247 48.2716333 4.18097178 47.3076333 3.97622751"></polygon>
                    <path d="M41.7895333,8.69147795 L40.5305333,9.22160141 C40.3078667,9.31542857 40.0515333,9.20987302 39.9582,8.98602822 C39.8652,8.76184832 39.9698667,8.50449383 40.1928667,8.41066667 L41.4518667,7.88087831 C41.6745333,7.78705115 41.9308667,7.8926067 42.0242,8.1164515 C42.1172,8.3402963 42.0125333,8.59765079 41.7895333,8.69147795" id="Fill-13" fill="#FFB70A"></path>
                    <path d="M30.5636333,21.0380265 L36.8036333,18.9443404 C37.7649667,18.621642 38.5366333,17.8904603 38.9136333,16.9451517 L41.2366333,11.1204956 L39.0843,9.89940212 L36.0053,16.0983616 L29.6686333,17.8840935 C28.5886333,18.1608836 28.0963,19.4205132 28.7003,20.3624709 C29.0986333,20.9844109 29.8623,21.260866 30.5636333,21.0380265" id="Fill-15" fill="#F46808"></path>
                    <path d="M28.1476333,17.2407072 L28.6896333,14.8283439 L31.4233,14.8283439 C31.4233,14.8283439 32.6509667,16.2045873 31.7789667,18.7399312 L28.1476333,17.2407072 Z" id="Fill-17" fill="#F97D00"></path>
                    <path d="M28.8156,16.6831728 L27.1882667,16.6831728 C27.1842667,17.1489577 26.9372667,17.5912857 26.3472667,17.8419383 C22.7052667,19.3870705 22.4789333,21.893261 21.8536,25.3735785 C21.7686,25.8464004 21.5336,26.1567002 21.2332667,26.3386578 L20.6532667,32.7219206 L31.5042667,32.7219206 L32.3366,20.3518148 C32.4816,18.3908272 30.8309333,16.6831728 28.8156,16.6831728" id="Fill-19" fill="#F97D00"></path>
                    <path d="M20.6756,32.4771323 L31.5049333,32.7093545 L32.0372667,24.7990547 L21.9552667,24.7990547 C21.9399333,24.886515 21.9236,24.9769912 21.9079333,25.0654568 C21.8899333,25.1683316 21.8722667,25.2691958 21.8536,25.373746 C21.8442667,25.425351 21.8266,25.4679083 21.8139333,25.5161623 C21.7099333,25.9058801 21.5009333,26.1769735 21.2332667,26.3384903 L20.6756,32.4771323 Z" id="Fill-21" fill="#00A8E8"></path>
                    <path d="M24.9477333,34.7548536 L33.7250667,37.2958942 L32.4617333,49.2886808 L34.1740667,49.3845185 L37.6467333,36.79794 C37.9620667,35.6545891 37.3990667,34.4512557 36.3220667,33.9667055 L29.9400667,31.1716614 L19.4884,31.1716614 L21.2384,33.6074815 L24.9477333,34.7548536 Z" id="Fill-23" fill="#694039"></path>
                    <path d="M37.1466333,50.4361869 L32.4299667,50.4361869 L32.5316333,48.9064691 L37.1466333,48.9064691 C37.5669667,48.9064691 37.9076333,49.2489383 37.9076333,49.6711605 C37.9076333,50.0937178 37.5669667,50.4361869 37.1466333,50.4361869" id="Fill-25" fill="#53241B"></path>
                    <polygon id="Fill-27" fill="#5DBEF4" points="42.8247 33.2375009 42.0170333 29.0809577 43.0090333 28.8524215 43.8170333 33.0089647"></polygon>
                    <path d="M24.8865667,40.335157 C24.9342333,40.335157 24.9825667,40.328455 25.0305667,40.3137108 C25.2932333,40.2336226 25.4412333,39.955157 25.3612333,39.6917707 L23.7755667,34.438455 C23.6959,34.1747337 23.4205667,34.0242751 23.1569,34.1057037 C22.8939,34.1857919 22.7462333,34.4639224 22.8259,34.7276437 L24.4119,39.9809594 C24.4769,40.1964268 24.6732333,40.335157 24.8865667,40.335157" id="Fill-29" fill="#E0EDF1"></path>
                    <g id="Group-33" transform="translate(39.333333, 39.843034)">
                        <mask id="mask-2" fill="white">
                            <use xlink:href="#path-1"></use>
                        </mask>
                        <g id="Clip-32"></g>
                        <path d="M1.70783333,11.7686737 C1.70783333,6.25063139 6.16016667,1.77775661 11.6485,1.77775661 C17.1348333,1.77775661 21.5858333,6.25063139 21.5858333,11.7686737 C21.5858333,17.2850406 17.1348333,21.7595908 11.6485,21.7595908 C6.16016667,21.7595908 1.70783333,17.2850406 1.70783333,11.7686737 M0.0185,11.7686737 C0.0185,18.2233122 5.22683333,23.4568571 11.6485,23.4568571 C18.0678333,23.4568571 23.2735,18.2233122 23.2735,11.7686737 C23.2735,5.31302998 18.0678333,0.0804902998 11.6485,0.0804902998 C5.22683333,0.0804902998 0.0185,5.31302998 0.0185,11.7686737" id="Fill-31" fill="#53241B" mask="url(#mask-2)"></path>
                    </g>
                    <g id="Group-36" transform="translate(2.333333, 39.843034)">
                        <mask id="mask-4" fill="white">
                            <use xlink:href="#path-3"></use>
                        </mask>
                        <g id="Clip-35"></g>
                        <path d="M2.01383333,11.7686737 C2.01383333,6.25063139 6.4655,1.77775661 11.9538333,1.77775661 C17.4421667,1.77775661 21.8925,6.25063139 21.8925,11.7686737 C21.8925,17.2850406 17.4421667,21.7595908 11.9538333,21.7595908 C6.4655,21.7595908 2.01383333,17.2850406 2.01383333,11.7686737 M0.326833333,11.7686737 C0.326833333,18.2233122 5.5315,23.4568571 11.9538333,23.4568571 C18.3735,23.4568571 23.5788333,18.2233122 23.5788333,11.7686737 C23.5788333,5.31302998 18.3735,0.0804902998 11.9538333,0.0804902998 C5.5315,0.0804902998 0.326833333,5.31302998 0.326833333,11.7686737" id="Fill-34" fill="#53241B" mask="url(#mask-4)"></path>
                    </g>
                    <path d="M26.7348667,46.5004056 L26.7348667,44.9214286 C30.3765333,44.9214286 33.8322,43.5287654 36.4655333,41.0001235 L43.1498667,34.5823457 L44.2348667,35.7240212 L37.5505333,42.142134 C34.6235333,44.9525926 30.7825333,46.5004056 26.7348667,46.5004056" id="Fill-37" fill="#00A8E8"></path>
                    <path d="M50.8302333,51.3620265 C50.8109,51.3620265 50.7919,51.360351 50.7722333,51.357 C50.5909,51.3248307 50.4699,51.1512504 50.5015667,50.9689577 L52.7609,38.0513034 C52.7929,37.8690106 52.9642333,37.7473704 53.1469,37.7795397 C53.3282333,37.8113739 53.4492333,37.9852892 53.4179,38.1672469 L51.1582333,51.0849012 C51.1295667,51.2474233 50.9892333,51.3620265 50.8302333,51.3620265" id="Fill-39" fill="#53241B"></path>
                    <path d="M43.7693667,35.1521781 C44.1353667,35.1521781 44.4543667,35.4035009 44.5403667,35.7613845 C44.5493667,35.7982451 45.4507,39.4990564 47.0013667,44.4460935 C47.6333667,46.4617019 49.3657,48.4598854 50.6300333,49.9195679 C50.9467,50.2844885 51.2347,50.6169048 51.4703667,50.9087743 C51.7470333,51.2502381 51.6957,51.7525485 51.3553667,52.0310141 C51.0157,52.3101499 50.5157,52.2578748 50.2390333,51.9157407 C50.0123667,51.6362698 49.7367,51.3182628 49.4327,50.9677513 C48.0767,49.4021781 46.2190333,47.2588977 45.4870333,44.9259524 C44.9230333,43.1268166 44.4437,41.4888624 44.0613667,40.1290388 L30.4327,53.578157 C30.2827,53.7262698 30.0823667,53.806358 29.8763667,53.806358 C29.8183667,53.806358 29.7600333,53.7999912 29.7020333,53.7869224 C29.4387,53.7272751 29.2240333,53.5376102 29.1313667,53.2829365 L22.9113667,36.2244885 C22.8220333,35.9798677 22.8570333,35.7070988 23.0053667,35.4933069 C23.1540333,35.279515 23.3970333,35.1521781 23.6563667,35.1521781 L24.7930333,36.7479101 L30.1987,51.5722663 L43.5763667,38.3701146 C43.3913667,37.6811552 43.2483667,37.1299206 43.1507,36.7479101" id="Fill-41" fill="#00A8E8"></path>
                    <path d="M30.5577667,53.6582116 C30.8617667,53.6582116 31.1211,53.4259894 31.1497667,53.1160247 C31.1807667,52.7869594 30.9401,52.4950899 30.6131,52.464261 L16.0994333,50.9918448 L24.8327667,36.2304868 C25.0151,35.9553721 24.9407667,35.5837496 24.6671,35.4004515 C24.3951,35.2184938 24.0237667,35.2908748 23.8417667,35.5669947 L14.5557667,51.1620741 C14.4394333,51.3373298 14.4237667,51.5615097 14.5137667,51.7511746 C14.6041,51.9411746 14.7867667,52.0701869 14.9954333,52.0896226 L30.5014333,53.6555309 C30.5204333,53.6575414 30.5391,53.6582116 30.5577667,53.6582116" id="Fill-43" fill="#F46808"></path>
                    <path d="M26.0799,52.1329171 C25.7935667,52.1329171 25.5612333,51.8993545 25.5612333,51.6118413 C25.5612333,45.361612 20.5035667,40.2768501 14.2862333,40.2768501 C8.06923333,40.2768501 3.01123333,45.361612 3.01123333,51.6118413 C3.01123333,51.8993545 2.77923333,52.1329171 2.49256667,52.1329171 C2.20656667,52.1329171 1.97456667,51.8993545 1.97456667,51.6118413 C1.97456667,44.7869206 7.49756667,39.2346984 14.2862333,39.2346984 C21.0749,39.2346984 26.5982333,44.7869206 26.5982333,51.6118413 C26.5982333,51.8993545 26.3659,52.1329171 26.0799,52.1329171" id="Fill-45" fill="#00A8E8"></path>
                    <path d="M24.7931333,36.7479771 L24.2854667,35.4860018 C24.2854667,35.4860018 24.1811333,35.1220864 23.6564667,35.1522451 L23.3941333,35.949776 L24.7931333,36.8950847 L24.7931333,36.7479771 Z" id="Fill-47" fill="#1398DF"></path>
                    <path d="M44.0909667,37.8331217 C43.7329667,37.8378131 43.4113,37.5864903 43.3383,37.2208995 L42.5716333,33.3890653 C42.4889667,32.9765608 42.7549667,32.5747795 43.1656333,32.4916755 C43.5779667,32.4092416 43.9759667,32.6759788 44.0583,33.0888183 L44.8246333,36.9203175 C44.9073,37.333157 44.6413,37.7352734 44.2309667,37.8180423 C44.1839667,37.827425 44.1369667,37.8324515 44.0909667,37.8331217" id="Fill-49" fill="#00A8E8"></path>
                    <path d="M39.0125333,52.1329171 C38.7265333,52.1329171 38.4942,51.8993545 38.4942,51.6118413 C38.4942,44.6907478 44.0948667,39.060448 50.9795333,39.060448 C51.2658667,39.060448 51.4978667,39.2936755 51.4978667,39.5815238 C51.4978667,39.8693721 51.2658667,40.1025996 50.9795333,40.1025996 C44.6668667,40.1025996 39.5312,45.2654392 39.5312,51.6118413 C39.5312,51.8993545 39.2988667,52.1329171 39.0125333,52.1329171" id="Fill-51" fill="#00A8E8"></path>
                    <path d="M27.5353,16.6831728 L26.8399667,16.6831728 C26.7886333,17.3513563 26.5249667,18.0212152 25.9876333,18.604284 C24.3293,20.4050952 22.9816333,20.2475996 22.4159667,22.6857654 C21.8136333,25.2834374 21.2319667,27.734672 21.1733,30.4187989 C21.1686333,30.6352716 21.0399667,31.0085697 21.0019667,31.2025908 L30.0069667,31.2025908 L30.8643,20.3518148 C31.0346333,18.2467354 29.5506333,16.6831728 27.5353,16.6831728" id="Fill-53" fill="#FFFFFF"></path>
                    <path d="M28.0467,35.4534974 L23.6920333,35.4534974 C23.2060333,35.4534974 22.8123667,35.0574127 22.8123667,34.5691764 C22.8123667,34.0806049 23.2060333,33.6848554 23.6920333,33.6848554 L28.0467,33.6848554 C28.5323667,33.6848554 28.9263667,34.0806049 28.9263667,34.5691764 C28.9263667,35.0574127 28.5323667,35.4534974 28.0467,35.4534974" id="Fill-55" fill="#53241B"></path>
                    <path d="M30.0418333,56.0198413 L14.3845,53.683545 C13.2678333,53.5495062 12.4268333,52.5974956 12.4268333,51.4668783 C12.4268333,50.2337213 13.4215,49.2344621 14.6475,49.2344621 L30.4431667,49.2344621 C32.3135,49.2344621 33.8298333,50.7588183 33.8298333,52.6390476 C33.8298333,54.6794533 32.0571667,56.2614462 30.0418333,56.0198413" id="Fill-57" fill="#0071B3"></path>
                    <path d="M19.9122667,29.6972011 L19.6726,31.7285591 C19.4866,33.3065309 19.9262667,34.8945556 20.8969333,36.1484885 L25.9286,43.228418 L25.0582667,56.2516279 L28.1422667,56.459388 L29.3746,42.827642 C29.4399333,42.1041675 29.3322667,41.3756667 29.0602667,40.7024568 L25.4306,31.7091235 L19.9122667,29.6972011 Z" id="Fill-59" fill="#694039"></path>
                    <path d="M45.0128667,29.2385873 L40.0678667,29.2385873 C39.2118667,29.2385873 38.5152,28.5382346 38.5152,27.6773704 L38.5152,27.0165591 C38.5152,26.7404392 38.2915333,26.5159242 38.0165333,26.5159242 L36.1532,26.5159242 L36.1532,25.4556772 L38.0165333,25.4556772 C38.8725333,25.4556772 39.5692,26.15603 39.5692,27.0165591 L39.5692,27.6773704 C39.5692,27.9538254 39.7928667,28.1783404 40.0678667,28.1783404 L45.0128667,28.1783404 C45.3075333,28.1783404 45.5468667,27.9374056 45.5468667,27.641515 L45.5468667,26.943843 C45.5468667,26.6476173 45.3075333,26.4070176 45.0128667,26.4070176 L44.0882,26.4070176 L44.0882,25.3464356 L45.0128667,25.3464356 C45.8882,25.3464356 46.6008667,26.062873 46.6008667,26.943843 L46.6008667,27.641515 C46.6008667,28.5221499 45.8882,29.2385873 45.0128667,29.2385873" id="Fill-61" fill="#5DBEF4"></path>
                    <polygon id="Fill-63" fill="#FFB70A" points="29.3995667 17.2241869 28.7739 19.0816296 26.1542333 16.5104303 26.4485667 14.2207125 29.8985667 14.2207125"></polygon>
                    <path d="M31.3989333,3.53487125 C31.2762667,3.57307231 31.1282667,3.55028571 31.0402667,3.41591182 C30.3806,2.4119612 28.5942667,1.95187302 27.4786,1.89021517 C25.5986,1.7863351 24.1016,2.99167901 23.3239333,4.63432451 C23.2662667,4.75730511 23.1546,4.80857496 23.0452667,4.80756966 C22.6499333,5.70663492 22.4906,6.53734039 22.7086,7.5647478 C22.8806,8.37869841 23.1532667,9.14640564 23.2789333,9.97241975 C23.3086,10.1681164 23.1619333,10.2874109 23.0102667,10.3031605 L23.2896,11.7702152 C23.8132667,14.519351 26.4546,16.3208325 29.1892667,15.7943951 C31.9236,15.2679577 33.7156,12.612649 33.1919333,9.86351323 L32.4049333,5.73310758 C32.2462667,4.89972134 31.8906,4.1554709 31.3989333,3.53487125" id="Fill-65" fill="#FFB70A"></path>
                    <path d="M29.0063333,10.2867743 C29.2806667,10.9985203 30.027,11.4354868 30.799,11.2867037 C31.545,11.1429471 32.067,10.500231 32.0956667,9.76904938 L29.0063333,10.2867743 Z" id="Fill-67" fill="#FFFFFF"></path>
                    <path d="M25.4152,6.91207937 C25.4152,6.91207937 26.3858667,10.2828201 23.2695333,11.7703157 L22.3952,7.68514815 L25.4152,6.91207937 Z" id="Fill-69" fill="#411A15"></path>
                    <path d="M23.437,17.4340917 L23.5863333,14.6524515 L27.4196667,14.6524515 C27.4196667,14.6524515 28.7326667,15.9372134 27.8603333,18.4728924 L23.437,17.4340917 Z" id="Fill-71" fill="#F97D00"></path>
                    <path d="M27.7859667,16.5948078 C27.7236333,15.908194 27.9803,18.219358 27.8013,21.7204515 C27.4766333,28.0661834 25.9029667,33.0299753 25.9029667,33.0299753 L17.4859667,33.0299753 L20.0413,26.7459012 L21.5913,20.7017566 C22.5209667,15.4775944 27.7859667,16.5948078 27.7859667,16.5948078" id="Fill-73" fill="#F97D00"></path>
                    <path d="M20.5665667,24.6974198 L20.0412333,26.7458677 L17.4859,33.0299418 L25.9029,33.0299418 C25.9029,33.0299418 27.0049,29.55197 27.5549,24.6974198 L20.5665667,24.6974198 Z" id="Fill-75" fill="#00A8E8"></path>
                    <path d="M20.3296,53.1494339 L3.58593333,53.1494339 C2.66293333,53.1494339 1.91526667,52.3974762 1.91526667,51.4702628 L1.91526667,39.0679877 C1.91526667,38.1404392 2.66293333,37.3888166 3.58593333,37.3888166 L17.9156,37.3888166 L19.9289333,36.8952187 L20.3296,36.8144603 L20.3296,53.1494339 Z" id="Fill-77" fill="#F7A100"></path>
                    <path d="M10.9497,50.9258977 L10.4230333,51.3869912 C10.3393667,51.4600423 10.2147,51.4600423 10.1310333,51.3869912 L9.60436667,50.9258977 C9.5557,50.8833404 9.5277,50.8220176 9.5277,50.7573439 L9.5277,45.3800423 L11.0260333,45.3800423 L11.0260333,50.7573439 C11.0260333,50.8220176 10.9983667,50.8833404 10.9497,50.9258977" id="Fill-79" fill="#F18F00"></path>
                    <path d="M20.5460667,36.8280988 L18.7157333,36.8280988 L17.4414,37.3994392 L3.5114,37.3994392 C2.7944,37.3994392 2.17306667,38.2083633 1.93573333,38.8631429 C1.9274,38.9311675 1.91506667,38.9978519 1.91506667,39.0678871 L1.91506667,46.7962293 L17.8080667,46.7962293 C18.6400667,46.7962293 19.3464,46.1840071 19.4694,45.3566526 L20.3180667,38.8604621 L20.3237333,38.863478 C20.3237333,38.8406914 20.3274,38.8189101 20.3297333,38.7967937 L20.5460667,36.8280988 Z" id="Fill-81" fill="#F18F00"></path>
                    <path d="M22.3318667,36.8143263 L19.4568667,36.8143263 L19.4568667,52.0384533 C19.4568667,52.6520159 19.9515333,53.1492998 20.5618667,53.1492998 L22.3318667,53.1492998 C22.9422,53.1492998 23.4368667,52.6520159 23.4368667,52.0384533 L23.4368667,37.9251728 C23.4368667,37.3116102 22.9422,36.8143263 22.3318667,36.8143263" id="Fill-83" fill="#F97D00"></path>
                    <g id="Group-87" transform="translate(0.000000, 36.492063)">
                        <mask id="mask-6" fill="white">
                            <use xlink:href="#path-5"></use>
                        </mask>
                        <g id="Clip-86"></g>
                        <path d="M20.4604333,0.322430335 C19.6954333,0.322430335 19.0617667,0.919238095 19.0114333,1.68661023 L18.6037667,7.92578131 C18.4807667,8.7534709 17.7737667,9.36669841 16.9404333,9.36669841 L0.8941,9.36669841 C0.3471,9.36669841 -0.0729,8.87745679 0.0104333333,8.33459965 L0.1371,7.47340035 L0.949766667,2.06124868 C1.09976667,1.06165432 1.9541,0.322430335 2.95976667,0.322430335 L20.4604333,0.322430335 Z" id="Fill-85" fill="#FDCC2E" mask="url(#mask-6)"></path>
                    </g>
                    <path d="M10.4298333,50.0253245 L9.90283333,50.486418 C9.81916667,50.5594691 9.69483333,50.5594691 9.61083333,50.486418 L9.08416667,50.0253245 C9.0355,49.9827672 9.00783333,49.9214444 9.00783333,49.8567707 L9.00783333,44.4794691 L10.5061667,44.4794691 L10.5061667,49.8567707 C10.5061667,49.9214444 10.4785,49.9827672 10.4298333,50.0253245" id="Fill-88" fill="#53241B"></path>
                    <path d="M43.7970333,26.6745591 L40.9093667,26.6745591 C40.4757,26.6745591 40.1237,26.3210317 40.1237,25.8850705 C40.1237,25.4487743 40.4757,25.0952469 40.9093667,25.0952469 L43.7970333,25.0952469 C44.2310333,25.0952469 44.5823667,25.4487743 44.5823667,25.8850705 C44.5823667,26.3210317 44.2310333,26.6745591 43.7970333,26.6745591" id="Fill-90" fill="#694039"></path>
                    <path d="M29.7762,57.9330776 L24.9602,57.7782628 L25.0335333,56.1543827 L29.8498667,56.3091975 C30.2958667,56.3296384 30.6412,56.7096384 30.6205333,57.1579982 C30.6005333,57.606358 30.2225333,57.9535185 29.7762,57.9330776" id="Fill-92" fill="#53241B"></path>
                    <path d="M38.5561333,25.4867407 C38.5561333,26.3395626 37.8684667,27.0305326 37.0204667,27.0305326 C36.1724667,27.0305326 35.4848,26.3395626 35.4848,25.4867407 C35.4848,24.634254 36.1724667,23.9429489 37.0204667,23.9429489 C37.8684667,23.9429489 38.5561333,24.634254 38.5561333,25.4867407" id="Fill-94" fill="#FFB70A"></path>
                    <path d="M29.0015372,25.564435 L35.5720333,24.6242681 L36.0277,27.0238977 L28.3243667,28.8860317 C27.6247,29.0552557 26.9220333,28.700388 26.6240333,28.0730864 L26.5923667,28.006067 L23.3403667,21.0182892 C22.9383667,20.1547443 23.3113667,19.1273369 24.1720333,18.7268959 C25.0470333,18.3197531 26.0837,18.7191887 26.4643667,19.6098765 L29.0015372,25.564435 Z" id="Fill-96" fill="#F46808"></path>
                    <path d="M60.2085,37.8097319 L52.4501667,37.8097319 C51.8478333,37.8097319 51.9598333,37.3188148 51.9598333,36.7136296 L51.9598333,27.7839647 C51.9598333,27.1784444 51.8478333,26.6878624 52.4501667,26.6878624 L60.2085,26.6878624 C60.8108333,26.6878624 61.2988333,27.1784444 61.2988333,27.7839647 L61.2988333,36.7136296 C61.2988333,37.3188148 60.8108333,37.8097319 60.2085,37.8097319" id="Fill-98" fill="#F7A100"></path>
                    <path d="M55.5441,27.8520564 L55.5441,36.6899048 C55.5441,37.3064832 55.0434333,37.8097989 54.4264333,37.8097989 L48.2617667,37.8097989 C47.7474333,37.8097989 47.3304333,37.3905926 47.3304333,36.8735379 L47.3304333,27.0190053 C47.3304333,27.0190053 48.0664333,26.7522681 48.7857667,26.7522681 L54.4264333,26.7522681 C55.0434333,26.7522681 55.5441,27.235478 55.5441,27.8520564" id="Fill-100" fill="#FDCC2E"></path>
                    <path d="M60.3156,26.4156966 L47.9972667,26.4156966 C47.6289333,26.4156966 47.3306,26.7159436 47.3306,27.0858907 L49.3266,27.0858907 L54.3066,27.0858907 L54.4266,27.0858907 C54.8579333,27.0858907 55.2112667,27.4407584 55.2112667,27.874709 L55.2112667,33.2010758 C55.2112667,33.3860494 55.3602667,33.5361728 55.5446,33.5361728 L61.4716,33.5361728 L61.4716,33.5274603 C61.6349333,33.5060141 61.7632667,33.37097 61.7632667,33.2010758 L61.7632667,27.8706878 C61.7632667,27.0671252 61.1149333,26.4156966 60.3156,26.4156966" id="Fill-102" fill="#F97D00"></path>
                    <mask id="mask-8" fill="white">
                        <use xlink:href="#path-7"></use>
                    </mask>
                    <g id="Clip-105"></g>
                    <polygon id="Fill-104" fill="#53241B" mask="url(#mask-8)" points="58.2736667 34.5823457 58.9563333 34.5823457 58.9563333 32.9400353 58.2736667 32.9400353"></polygon>
                    <path d="M59.8025667,38.4445062 L48.4682333,38.4445062 C47.4945667,38.4445062 46.6365667,37.7505203 46.4279,36.7944885 L45.8202333,34.0078219 C45.7809,33.8272046 45.8942333,33.6485979 46.0742333,33.6087213 C46.2545667,33.5691799 46.4319,33.683448 46.4712333,33.8644004 L47.0789,36.651067 C47.2212333,37.3018254 47.8055667,37.7743122 48.4682333,37.7743122 L59.8025667,37.7743122 C59.9869,37.7743122 60.1359,37.9244356 60.1359,38.1094092 C60.1359,38.2943827 59.9869,38.4445062 59.8025667,38.4445062" id="Fill-106" fill="#53241B" mask="url(#mask-8)"></path>
                    <path d="M37.5291333,4.27040917 L32.5684667,5.10949206 L32.4514667,4.41014462 C31.9694667,1.53099118 29.2578,-0.41022575 26.3941333,0.073989418 C23.5301333,0.558204586 21.5991333,3.28455379 22.0808,6.16370723 L22.1981333,6.86405996 L22.3354667,7.68504762 L36.8494667,5.22979189 C37.3004667,5.15338977 37.6051333,4.72413051 37.5291333,4.27040917" id="Fill-107" fill="#00A8E8" mask="url(#mask-8)"></path>
                </g>
            </g>
        </g>
    </g>
</svg>